<mxfile host="app.diagrams.net" modified="2020-12-09T11:14:47.863Z" agent="5.0 (Windows NT 10.0; Win64; x64) AppleWebKit/537.36 (KHTML, like Gecko) Chrome/78.0.3904.97 Safari/537.36" etag="30Krqohj5wDbT9OBjOpm" version="14.0.0" type="github">
  <diagram id="dAtz1YwK6WuvTJzpH8qe" name="Page-1">
    <mxGraphModel dx="317" dy="503" grid="1" gridSize="10" guides="1" tooltips="1" connect="1" arrows="1" fold="1" page="1" pageScale="1" pageWidth="850" pageHeight="1100" math="0" shadow="0">
      <root>
        <mxCell id="0" />
        <mxCell id="1" parent="0" />
        <mxCell id="QCEYu4sghAliCAPdEdUp-1" value="" style="rounded=0;whiteSpace=wrap;html=1;" vertex="1" parent="1">
          <mxGeometry x="10" y="370" width="460" height="50" as="geometry" />
        </mxCell>
        <mxCell id="QCEYu4sghAliCAPdEdUp-2" value="" style="endArrow=none;dashed=1;html=1;" edge="1" parent="1">
          <mxGeometry width="50" height="50" relative="1" as="geometry">
            <mxPoint x="74" y="420" as="sourcePoint" />
            <mxPoint x="74" y="370" as="targetPoint" />
          </mxGeometry>
        </mxCell>
        <mxCell id="QCEYu4sghAliCAPdEdUp-3" value="Warrior" style="text;html=1;strokeColor=none;fillColor=none;align=center;verticalAlign=middle;whiteSpace=wrap;rounded=0;" vertex="1" parent="1">
          <mxGeometry x="14" y="385" width="40" height="20" as="geometry" />
        </mxCell>
        <mxCell id="QCEYu4sghAliCAPdEdUp-4" value="" style="endArrow=none;dashed=1;html=1;" edge="1" parent="1">
          <mxGeometry width="50" height="50" relative="1" as="geometry">
            <mxPoint x="142" y="420" as="sourcePoint" />
            <mxPoint x="142" y="370" as="targetPoint" />
          </mxGeometry>
        </mxCell>
        <mxCell id="QCEYu4sghAliCAPdEdUp-5" value="Heavy" style="text;html=1;strokeColor=none;fillColor=none;align=center;verticalAlign=middle;whiteSpace=wrap;rounded=0;" vertex="1" parent="1">
          <mxGeometry x="82" y="385" width="40" height="20" as="geometry" />
        </mxCell>
        <mxCell id="QCEYu4sghAliCAPdEdUp-6" value="" style="endArrow=none;dashed=1;html=1;" edge="1" parent="1">
          <mxGeometry width="50" height="50" relative="1" as="geometry">
            <mxPoint x="222" y="420" as="sourcePoint" />
            <mxPoint x="222" y="370" as="targetPoint" />
          </mxGeometry>
        </mxCell>
        <mxCell id="QCEYu4sghAliCAPdEdUp-7" value="Spy" style="text;html=1;strokeColor=none;fillColor=none;align=center;verticalAlign=middle;whiteSpace=wrap;rounded=0;" vertex="1" parent="1">
          <mxGeometry x="162" y="385" width="40" height="20" as="geometry" />
        </mxCell>
        <mxCell id="QCEYu4sghAliCAPdEdUp-8" value="" style="endArrow=none;dashed=1;html=1;" edge="1" parent="1">
          <mxGeometry width="50" height="50" relative="1" as="geometry">
            <mxPoint x="404.43" y="420" as="sourcePoint" />
            <mxPoint x="404.43" y="370" as="targetPoint" />
          </mxGeometry>
        </mxCell>
        <mxCell id="QCEYu4sghAliCAPdEdUp-9" value="Location" style="text;html=1;strokeColor=none;fillColor=none;align=center;verticalAlign=middle;whiteSpace=wrap;rounded=0;" vertex="1" parent="1">
          <mxGeometry x="420" y="385" width="40" height="20" as="geometry" />
        </mxCell>
        <mxCell id="QCEYu4sghAliCAPdEdUp-11" value="Cancel" style="text;html=1;strokeColor=none;fillColor=none;align=center;verticalAlign=middle;whiteSpace=wrap;rounded=0;" vertex="1" parent="1">
          <mxGeometry x="350" y="385" width="40" height="20" as="geometry" />
        </mxCell>
      </root>
    </mxGraphModel>
  </diagram>
</mxfile>
